<?xml version="1.0" encoding="utf-8"?>
<!-- Generator: Adobe Illustrator 21.0.2, SVG Export Plug-In . SVG Version: 6.00 Build 0)  -->
<svg version="1.1" id="Capa_1" xmlns="http://www.w3.org/2000/svg" xmlns:xlink="http://www.w3.org/1999/xlink" x="0px" y="0px"
	 viewBox="0 0 155.6 27" style="enable-background:new 0 0 155.6 27;" xml:space="preserve">
<style type="text/css">
	.st0{fill:#052D39;}
</style>
<g>
	<g>
		<path class="st0" d="M25.7,13.8c-1.3,1.9-3.1,3.6-4.7,3.6c-0.7,0-1-0.4-0.9-1.1c0-0.5,0.1-1.1,0.2-1.4c1.5-0.7,3-1.6,4.3-2.9
			c0.7-0.8,1.2-1.6,1.3-2.4c0-0.8-0.5-1.2-1.4-1.2c-1.4,0-3.1,0.9-4.2,2.1c-1.4,1.6-2.6,3.8-2.6,5.8c0,1.4,0.6,2.5,2.4,2.4
			c1.9,0,3.8-1.5,4.8-2.6c-0.1,0.5-0.2,0.9-0.2,1.2c0,1.2,0.6,2.1,1.8,2.5l0.2-0.1c-0.1-0.3-0.1-0.7-0.1-1.1
			c0.1-1.2,0.6-2.6,1.3-4.4c1.3-3.4,3.3-7.3,4.2-9.6L30.1,5c-0.3,0.1-0.5,0.3-0.6,0.5c-1,2.1-2,4.4-3.3,7.3
			C26,13.2,25.9,13.5,25.7,13.8z M23.8,9.3c0.3,0,0.4,0.2,0.4,0.5c0,1.3-1.6,3-3.7,4.2C21.1,12,22.5,9.3,23.8,9.3z"/>
		<path class="st0" d="M58.9,17.2c0,0.9,0.6,1.5,1.7,1.5c1.2,0,2.4-0.7,3.4-1.7c0.2,1,0.9,1.7,2.4,1.7c1.5-0.1,3-1,4.1-2.1
			c0,0.1,0,0.2,0,0.3c0,1,0.5,1.8,1.7,1.8c1.3,0,2.7-1,3.9-2.6l0,0c-0.1,0.4-0.2,1.1-0.2,1.5c0,1.3,0.7,2,1.8,2.2l0.2-0.1
			c-0.4-0.9,0.1-3.2,0.4-3.9c0.8-2.5,2-5.3,2.7-6.7c-0.3-0.3-1.1-0.5-1.9-0.5c-2.7-0.1-5.3,1-7.3,4.5c-0.3,0.6-0.7,1.3-1,2
			c-0.3,0.4-0.6,0.7-0.7,0.8c-0.7,0.7-1.7,1.6-2.7,1.6c-0.6,0-0.9-0.4-0.9-1.1c0-2.8,2.4-7,4.1-7c0.5,0,0.6,0.2,0.6,0.6
			c0,0.5-0.3,1.1-0.8,1.5l0.2,0.2c1.1-0.4,2.1-1.2,2.1-2c0-0.9-1.1-1.1-2-1.1c-1.3,0-2.9,0.6-4.2,2.1c-1.6,1.8-2.5,3.9-2.6,5.4
			c-0.7,0.9-1.6,1.4-2.1,1.5c-0.3,0-0.5-0.2-0.5-0.5c0-0.3,0.2-0.9,0.5-1.6c0.7-1.8,1.7-4,3-6.6c0,0-1.9,0.3-2.2,0.4
			C62.3,9,62.1,9.2,62,9.5c-0.8,1.8-1.8,3.8-2.4,5.3C59.2,15.8,58.9,16.7,58.9,17.2z M77,9.6c0.6-0.3,1.1-0.3,1.6-0.2
			c-0.2,0.3-0.9,1.8-1.5,3.2c-0.9,2.1-2.3,4.3-3.6,4.6c-0.4,0.1-0.7-0.1-0.7-0.5C72.9,14.8,74.9,10.6,77,9.6z"/>
		<path class="st0" d="M31.7,10.4c-1.4,1.6-2.6,3.8-2.6,5.8c0,1.4,0.7,2.5,2.6,2.4c2,0,3.8-1.2,5.3-2.8c-0.4,1-0.7,2-0.9,2.4
			c-0.6,1.4-1,2.6-1.9,3.3l0.1,0.2c2.6,0.2,3.6-1.7,4.7-4.7c1.1-3,2-5.6,2.7-7.4c1.1,0,2.8,0,3.7-0.2c-2.4,1-4.4,4.8-4.1,7.3
			c0.1,1.1,0.8,1.9,2.2,1.9c2.7,0,5-3.2,5.9-5.3c0.5-1.2,0.8-2.2,0.9-3.3c0.6-0.1,1.3-0.2,1.6-0.3c0.6-0.1,0.5,0.6,0.3,1.1
			c-1.1,3.1-3,7.6-3,7.7h2.1c0.9-1.9,1.5-3.1,2.2-4.4c0.9-1.5,2.9-4,3.6-4.1c0.3,0,0.4,0.2,0.3,0.4c-0.1,1-2.7,5-2.6,7
			c0,1.3,0.7,2.1,1.9,2.3l0.2-0.1c-0.1-0.3-0.2-0.6-0.2-1c0-1.3,1-3.6,1.5-4.5c0.7-1.4,1.8-3.4,1.7-4.5c0-0.5-0.4-1-1.4-1
			c-1.7,0-3.4,1.7-4.9,3.9l0,0c0.6-1.3,1-2.5,1-3.1c0-0.5-0.3-0.8-1-0.8c-0.5,0-1.1,0.2-1.7,0.3C50.9,9.1,50,9.3,49,9.6
			c-0.6,0.1-0.8,0.2-0.8,0.4c0.1,3.4-2.2,7.5-3.8,7.5c-0.7,0-0.8-0.5-0.8-1.2c0-2.4,1.9-6.4,3.9-7c0.2,0,0.3-0.1,0.4-0.1l0.2-0.6
			c-0.4,0.1-1.4,0.1-1.9,0.1c-0.5,0-4.2,0-4.2,0C43.2,6,44.8,4.3,47,4.2c1.4,0,2.4,0.5,2.4,1.3c0.1,0.7-0.1,1.2-0.7,1.8L49,7.5
			c1.2-0.6,2.1-1.6,2.1-2.3c0-1.1-1.3-1.7-3.3-1.7c-2.6,0-5.8,0.6-8,5.2c-0.7,0.1-1.3,0.4-1.8,0.9l0.1,0.2c0.4-0.1,0.8-0.2,1.3-0.2
			c-0.3,0.8-0.9,2.4-1.5,4.1c-1.9,2.5-3.8,3.7-5.1,3.7c-0.8,0-1.1-0.4-1.1-1.1c0-0.5,0.1-1.1,0.2-1.4c1.5-0.7,3-1.6,4.3-2.9
			c0.7-0.8,1.2-1.6,1.3-2.4c0-0.8-0.5-1.2-1.5-1.2C34.5,8.3,32.8,9.3,31.7,10.4z M35.3,9.3c0.3,0,0.4,0.2,0.4,0.5
			c0,1.3-1.6,3-3.7,4.2C32.5,12,34,9.3,35.3,9.3z"/>
		<path class="st0" d="M64.9,7c0.6,0,1.2-0.6,1.3-1.2c0.1-0.7-0.2-1.2-0.8-1.2c-0.6,0-1.2,0.5-1.3,1.2C63.9,6.4,64.3,7,64.9,7z"/>
		<path class="st0" d="M43.6,25.8c-21.5,0-43.3,0.3-43.3,0.6c0,0.3,21.8,0.6,43.3,0.6c21.5,0,43.3-0.3,43.3-0.6
			C86.9,26.1,65.1,25.8,43.6,25.8z"/>
		<path class="st0" d="M9,10.5l0.1-0.1c-0.2-0.3-0.3-0.9-0.3-1.2c0.1-2.8,3-4.4,7.6-4.4c0,0,1.1,0,2.6,0c-1.5,0.9-2.7,2-3.7,4.2
			c-0.4,0.9-2.4,5.9-3.2,8.2c-1,2.7-1.6,3.9-2.4,4.3l0.1,0.2c2.2,0.1,3.5-1,4.4-3.1c0.8-2,1.9-5.1,2.4-6.5c1.7-4.5,2.4-6.4,3.8-7.3
			c1.9,0,3.7,0,3.7,0c2-0.1,2.9-0.6,3.5-1.3l-0.1-0.2C27.1,3.6,26,3.6,25,3.6h-9.2c-5.2,0-8.3,1.7-8.8,4.2C6.8,9.1,7.5,10.4,9,10.5z
			"/>
	</g>
	<g>
		<path class="st0" d="M107,10.1h2.5l-0.1,0.9h-3.7l1-5.4h3.7L110,6.5h-2.3l-0.2,1.3h1.9l-0.2,0.9h-1.9L107,10.1z"/>
		<path class="st0" d="M112.9,5.6c0.2,0,0.4,0,0.6,0c0.2,0,0.4,0.1,0.5,0.1c0.2,0,0.3,0.1,0.5,0.2c0.1,0.1,0.3,0.2,0.4,0.3
			c0.2,0.2,0.3,0.4,0.4,0.7c0.1,0.3,0.1,0.5,0.1,0.8c0,0.5-0.1,0.9-0.2,1.4c-0.1,0.4-0.4,0.8-0.7,1.1c-0.3,0.3-0.7,0.5-1.1,0.6
			c-0.4,0.1-0.9,0.2-1.4,0.2h-1.7l1-5.4H112.9z M111.8,10.1h0.4c0.3,0,0.6,0,0.9-0.1c0.2-0.1,0.4-0.3,0.6-0.5
			c0.1-0.2,0.3-0.5,0.4-0.8c0.1-0.3,0.1-0.6,0.1-1c0-0.4-0.1-0.7-0.3-0.9c-0.1-0.1-0.2-0.2-0.4-0.2c-0.2-0.1-0.4-0.1-0.6-0.1h-0.5
			L111.8,10.1z"/>
		<path class="st0" d="M120.1,5.6h1.1l-0.6,3.6c-0.1,0.3-0.2,0.6-0.3,0.9c-0.1,0.2-0.3,0.4-0.4,0.5c-0.2,0.2-0.5,0.3-0.7,0.4
			c-0.3,0.1-0.6,0.1-0.9,0.1c-0.3,0-0.6,0-0.9-0.1c-0.3-0.1-0.5-0.2-0.7-0.4c-0.2-0.2-0.3-0.4-0.4-0.6c-0.1-0.2-0.1-0.5-0.1-0.8
			c0-0.1,0-0.3,0-0.4c0-0.1,0-0.3,0.1-0.5l0.5-2.9h1.2l-0.6,3.2c0,0.2,0,0.3,0,0.4c0,0.1,0,0.1,0,0.2c0,0.1,0,0.2,0,0.3
			c0,0.1,0.1,0.2,0.1,0.3c0.1,0.2,0.4,0.3,0.7,0.3c0.2,0,0.4,0,0.5-0.1c0.1-0.1,0.2-0.1,0.3-0.2c0.1-0.1,0.2-0.2,0.2-0.4
			c0.1-0.2,0.1-0.4,0.2-0.6L120.1,5.6z"/>
		<path class="st0" d="M125.9,6.6c-0.2,0-0.3-0.1-0.5-0.1c-0.2,0-0.4-0.1-0.6-0.1c-0.1,0-0.2,0-0.4,0c-0.1,0-0.2,0.1-0.3,0.1
			c-0.1,0.1-0.2,0.1-0.3,0.2c-0.1,0.1-0.2,0.2-0.3,0.3c-0.1,0.1-0.1,0.2-0.2,0.4c-0.1,0.1-0.1,0.3-0.2,0.4c0,0.2-0.1,0.3-0.1,0.5
			c0,0.2,0,0.3,0,0.5c0,0.2,0,0.3,0,0.5c0,0.2,0.1,0.3,0.2,0.4c0.1,0.1,0.2,0.2,0.4,0.3c0.2,0.1,0.4,0.1,0.6,0.1c0.2,0,0.4,0,0.5,0
			c0.2,0,0.4,0,0.5-0.1l0,0.9c-0.2,0.1-0.4,0.1-0.6,0.1s-0.5,0-0.7,0c-0.7,0-1.3-0.2-1.7-0.5c-0.4-0.3-0.6-0.9-0.6-1.6
			c0-0.2,0-0.5,0.1-0.7c0-0.2,0.1-0.5,0.2-0.7c0.1-0.2,0.2-0.5,0.3-0.7c0.1-0.2,0.3-0.4,0.4-0.6c0.3-0.3,0.6-0.5,0.9-0.6
			c0.3-0.1,0.7-0.2,1.1-0.2c0.3,0,0.6,0,0.8,0.1c0.3,0.1,0.5,0.1,0.7,0.2L125.9,6.6z"/>
		<path class="st0" d="M129.6,9.7h-1.8l-0.7,1.4h-1.2l2.8-5.4h1.4l1,5.4h-1.3L129.6,9.7z M128.3,8.8h1.2l-0.3-1.9h0L128.3,8.8z"/>
		<path class="st0" d="M136,6.6c-0.2,0-0.3-0.1-0.5-0.1c-0.2,0-0.4-0.1-0.6-0.1c-0.1,0-0.2,0-0.4,0c-0.1,0-0.2,0.1-0.3,0.1
			c-0.1,0.1-0.2,0.1-0.3,0.2c-0.1,0.1-0.2,0.2-0.3,0.3c-0.1,0.1-0.1,0.2-0.2,0.4c-0.1,0.1-0.1,0.3-0.2,0.4c0,0.2-0.1,0.3-0.1,0.5
			c0,0.2,0,0.3,0,0.5c0,0.2,0,0.3,0,0.5c0,0.2,0.1,0.3,0.2,0.4c0.1,0.1,0.2,0.2,0.4,0.3c0.2,0.1,0.4,0.1,0.6,0.1c0.2,0,0.4,0,0.5,0
			c0.2,0,0.4,0,0.5-0.1l0,0.9c-0.2,0.1-0.4,0.1-0.6,0.1c-0.2,0-0.5,0-0.7,0c-0.7,0-1.3-0.2-1.7-0.5c-0.4-0.3-0.6-0.9-0.6-1.6
			c0-0.2,0-0.5,0.1-0.7c0-0.2,0.1-0.5,0.2-0.7c0.1-0.2,0.2-0.5,0.3-0.7c0.1-0.2,0.3-0.4,0.4-0.6c0.3-0.3,0.6-0.5,0.9-0.6
			c0.3-0.1,0.7-0.2,1.1-0.2c0.3,0,0.6,0,0.8,0.1c0.3,0.1,0.5,0.1,0.7,0.2L136,6.6z"/>
		<path class="st0" d="M137.5,5.6h1.2l-1,5.4h-1.2L137.5,5.6z"/>
		<path class="st0" d="M141.4,11.1c-0.3,0-0.6,0-0.9-0.1c-0.3-0.1-0.5-0.2-0.7-0.4c-0.2-0.2-0.3-0.4-0.4-0.7c-0.1-0.3-0.2-0.6-0.2-1
			c0-0.4,0.1-0.8,0.2-1.2c0.1-0.4,0.2-0.7,0.4-1.1c0.2-0.4,0.6-0.7,0.9-1c0.4-0.2,0.9-0.3,1.4-0.3c0.3,0,0.6,0,0.9,0.1
			c0.3,0.1,0.5,0.2,0.7,0.4c0.2,0.2,0.3,0.4,0.4,0.7c0.1,0.3,0.2,0.6,0.2,1c0,0.4,0,0.8-0.1,1.2c-0.1,0.4-0.2,0.8-0.4,1.1
			C143.3,10.7,142.5,11.1,141.4,11.1z M142.2,6.5c-0.3,0-0.5,0.1-0.7,0.2c-0.2,0.1-0.3,0.3-0.5,0.6c-0.1,0.3-0.2,0.5-0.3,0.8
			c-0.1,0.3-0.1,0.6-0.1,0.9c0,0.4,0.1,0.7,0.2,0.9c0.2,0.2,0.4,0.3,0.7,0.3c0.3,0,0.5-0.1,0.7-0.2c0.2-0.1,0.3-0.3,0.5-0.6
			c0.1-0.3,0.2-0.5,0.3-0.8c0.1-0.3,0.1-0.6,0.1-0.9c0-0.2,0-0.4-0.1-0.6c0-0.1-0.1-0.3-0.2-0.4c-0.1-0.1-0.2-0.2-0.3-0.2
			C142.4,6.5,142.3,6.5,142.2,6.5z M141.4,4.5l1.8-1.1l0.5,0.9l-1.9,0.8L141.4,4.5z"/>
		<path class="st0" d="M145.8,5.6h0.9l2,3.6l0.6-3.6h1.1l-1,5.4h-1l-1.9-3.4l-0.6,3.4h-1.1L145.8,5.6z"/>
		<path class="st0" d="M108.2,13.4c0.2,0,0.4,0,0.6,0c0.2,0,0.4,0.1,0.5,0.1c0.2,0,0.3,0.1,0.5,0.2c0.1,0.1,0.3,0.2,0.4,0.3
			c0.2,0.2,0.3,0.4,0.4,0.7c0.1,0.3,0.1,0.5,0.1,0.8c0,0.5-0.1,0.9-0.2,1.4c-0.1,0.4-0.4,0.8-0.7,1.1c-0.3,0.3-0.7,0.5-1.1,0.6
			c-0.4,0.1-0.9,0.2-1.4,0.2h-1.7l1-5.4H108.2z M107,18h0.4c0.3,0,0.6,0,0.9-0.1c0.2-0.1,0.4-0.3,0.6-0.5c0.1-0.2,0.3-0.5,0.4-0.8
			c0.1-0.3,0.1-0.6,0.1-1c0-0.4-0.1-0.7-0.3-0.9c-0.1-0.1-0.2-0.2-0.4-0.2c-0.2-0.1-0.4-0.1-0.6-0.1h-0.5L107,18z"/>
		<path class="st0" d="M112.2,13.4h1.2l-1,5.4h-1.2L112.2,13.4z"/>
		<path class="st0" d="M117.8,14.3c-0.2,0-0.5-0.1-0.7-0.1c-0.2,0-0.4,0-0.6,0.1c-0.2,0.1-0.4,0.2-0.6,0.4c-0.1,0.1-0.2,0.3-0.3,0.4
			c-0.1,0.2-0.1,0.3-0.2,0.5c-0.1,0.2-0.1,0.4-0.1,0.5c0,0.2,0,0.4,0,0.5c0,0.2,0,0.4,0.1,0.5c0,0.2,0.1,0.3,0.2,0.4
			c0.2,0.2,0.5,0.3,0.9,0.3c0.1,0,0.1,0,0.3,0c0.1,0,0.2,0,0.3,0l0.2-1.2h-0.8l0.2-0.9h2l-0.5,2.8c-0.3,0.1-0.5,0.1-0.9,0.2
			c-0.3,0.1-0.6,0.1-1,0.1c-0.4,0-0.8,0-1.1-0.1c-0.3-0.1-0.5-0.2-0.7-0.4c-0.2-0.2-0.3-0.4-0.4-0.7c-0.1-0.3-0.1-0.6-0.1-1
			c0-0.3,0-0.6,0.1-0.9c0.1-0.3,0.1-0.6,0.3-0.8c0.1-0.3,0.2-0.5,0.4-0.7c0.2-0.2,0.3-0.4,0.6-0.6c0.3-0.2,0.5-0.3,0.8-0.4
			c0.3-0.1,0.6-0.1,0.9-0.1c0.3,0,0.6,0,0.9,0.1c0.3,0.1,0.6,0.1,0.8,0.2l-0.3,0.9C118.2,14.4,118,14.4,117.8,14.3z"/>
		<path class="st0" d="M120.3,13.4h1.2l-1,5.4h-1.2L120.3,13.4z"/>
		<path class="st0" d="M122.3,14.3l0.2-0.9h4.7l-0.3,0.9h-1.6l-0.8,4.5h-1.2l0.8-4.5H122.3z"/>
		<path class="st0" d="M129.8,17.5H128l-0.7,1.4h-1.2l2.8-5.4h1.4l1,5.4H130L129.8,17.5z M128.5,16.6h1.2l-0.3-1.9h0L128.5,16.6z"/>
		<path class="st0" d="M132,18.9l1-5.4h1.2l-0.8,4.5h2.4l-0.2,0.9H132z"/>
	</g>
	<rect x="93.4" y="3.3" class="st0" width="0.7" height="18.5"/>
</g>
</svg>
