<?xml version="1.0" encoding="utf-8"?>
<!-- Generator: Adobe Illustrator 15.0.0, SVG Export Plug-In . SVG Version: 6.00 Build 0)  -->
<!DOCTYPE svg PUBLIC "-//W3C//DTD SVG 1.1//EN" "http://www.w3.org/Graphics/SVG/1.1/DTD/svg11.dtd">
<svg version="1.1" id="Capa_1" xmlns="http://www.w3.org/2000/svg" xmlns:xlink="http://www.w3.org/1999/xlink" x="0px" y="0px"
	 width="292.567px" height="41.216px" viewBox="0 0 292.567 41.216" enable-background="new 0 0 292.567 41.216"
	 xml:space="preserve">
<path fill="#FFFFFF" d="M36.414,20.692c-1.508,2.181-3.61,4.16-5.417,4.16c-0.769,0.024-1.109-0.414-1.096-1.299
	c0-0.528,0.127-1.274,0.233-1.652c1.705-0.862,3.445-1.83,4.996-3.432c0.863-0.927,1.442-1.858,1.469-2.821
	c0.015-0.906-0.555-1.369-1.681-1.385c-1.638-0.02-3.603,1.1-4.878,2.46c-1.676,1.829-2.967,4.413-3,6.711
	c-0.019,1.626,0.754,2.922,2.848,2.843c2.242-0.058,4.449-1.79,5.581-3.04c-0.135,0.535-0.226,1.038-0.226,1.453
	c0,1.447,0.719,2.472,2.139,2.907l0.285-0.134c-0.128-0.39-0.161-0.8-0.128-1.257c0.099-1.406,0.655-2.993,1.479-5.078
	c1.564-3.942,3.844-8.458,4.846-11.117l-2.39,0.452c-0.37,0.081-0.606,0.362-0.73,0.631c-1.153,2.453-2.338,5.065-3.813,8.468
	C36.758,19.929,36.599,20.312,36.414,20.692 M34.174,15.438c0.374,0,0.502,0.255,0.502,0.58c0,1.537-1.899,3.504-4.318,4.938
	C30.965,18.576,32.677,15.417,34.174,15.438"/>
<path fill="#FFFFFF" d="M75.024,24.6c0,1.094,0.692,1.765,2.009,1.728c1.367-0.026,2.759-0.839,3.91-1.949
	c0.222,1.176,1.067,2.03,2.793,1.967c1.797-0.067,3.519-1.19,4.714-2.499v0.376c0,1.208,0.623,2.116,2.004,2.116
	c1.486,0,3.198-1.121,4.548-3.044l0.046,0.023c-0.125,0.454-0.27,1.229-0.291,1.742c-0.021,1.454,0.838,2.292,2.038,2.533
	l0.291-0.121c-0.439-1.052,0.172-3.671,0.426-4.543c0.892-2.871,2.309-6.151,3.128-7.854c-0.372-0.319-1.248-0.534-2.181-0.576
	c-3.09-0.114-6.201,1.162-8.47,5.178c-0.389,0.697-0.815,1.503-1.129,2.354c-0.324,0.43-0.661,0.813-0.803,0.951
	c-0.82,0.79-1.985,1.804-3.172,1.817c-0.674,0.013-1.045-0.458-1.03-1.299c0.014-3.213,2.849-8.094,4.775-8.108
	c0.528,0,0.755,0.232,0.755,0.683c0,0.531-0.367,1.271-0.886,1.744l0.226,0.205c1.292-0.495,2.491-1.396,2.498-2.354
	c0-1.089-1.257-1.294-2.375-1.285c-1.501,0.021-3.373,0.755-4.873,2.394c-1.882,2.058-2.853,4.522-3.045,6.277
	c-0.858,1.006-1.822,1.687-2.46,1.696c-0.361,0.014-0.621-0.182-0.625-0.561c0-0.334,0.192-1.02,0.523-1.906
	c0.831-2.068,2.035-4.647,3.513-7.715c0,0-2.251,0.376-2.572,0.472c-0.345,0.084-0.606,0.31-0.754,0.619
	c-0.963,2.04-2.107,4.396-2.819,6.156C75.295,22.925,75.024,23.972,75.024,24.6 M96.086,15.816c0.719-0.34,1.318-0.357,1.822-0.256
	c-0.19,0.398-1.058,2.142-1.73,3.711c-1.065,2.463-2.667,4.946-4.15,5.3c-0.512,0.146-0.812-0.073-0.805-0.582
	C91.268,21.808,93.668,16.951,96.086,15.816"/>
<path fill="#FFFFFF" d="M43.396,16.723c-1.678,1.829-2.973,4.413-3.001,6.711c-0.017,1.593,0.824,2.922,2.97,2.843
	c2.303-0.058,4.4-1.39,6.211-3.295c-0.456,1.22-0.847,2.271-1.082,2.837c-0.673,1.682-1.169,3.044-2.202,3.829l0.113,0.204
	c3.036,0.177,4.171-1.958,5.42-5.432c1.248-3.484,2.305-6.513,3.127-8.61c1.329,0,3.211,0.048,4.263-0.19
	c-2.751,1.218-5.085,5.605-4.809,8.498c0.122,1.278,0.887,2.159,2.515,2.159c3.155,0,5.812-3.732,6.823-6.196
	c0.582-1.411,0.967-2.617,1.027-3.828c0.754-0.13,1.47-0.261,1.831-0.313c0.687-0.096,0.555,0.666,0.337,1.246
	c-1.289,3.6-3.524,8.836-3.534,8.913h2.466c1.068-2.223,1.728-3.644,2.58-5.154c1.028-1.78,3.319-4.71,4.232-4.718
	c0.323,0,0.407,0.206,0.328,0.517c-0.159,1.21-3.112,5.829-3.063,8.108c0.028,1.493,0.812,2.392,2.184,2.734l0.286-0.16
	c-0.174-0.324-0.197-0.733-0.201-1.207c-0.024-1.521,1.216-4.188,1.692-5.226c0.762-1.619,2.12-3.993,2.033-5.292
	c-0.048-0.638-0.52-1.203-1.611-1.212c-2.01-0.01-4.01,1.943-5.688,4.556L68.6,19.041c0.673-1.523,1.196-2.935,1.18-3.624
	c-0.014-0.629-0.371-0.876-1.126-0.876c-0.526,0.015-1.249,0.215-1.96,0.406c-0.994,0.258-2.039,0.53-3.187,0.77
	c-0.703,0.094-0.949,0.224-0.929,0.477c0.144,4-2.577,8.701-4.39,8.717c-0.78,0-0.956-0.567-0.956-1.356
	c-0.009-2.768,2.266-7.409,4.485-8.144c0.192-0.058,0.384-0.1,0.512-0.138l0.281-0.747c-0.471,0.097-1.59,0.114-2.182,0.132h-4.875
	c1.288-3.07,3.093-5.062,5.742-5.177c1.643-0.054,2.751,0.564,2.848,1.505c0.067,0.803-0.153,1.451-0.796,2.116l0.183,0.183
	c1.451-0.685,2.448-1.849,2.455-2.641c0.024-1.235-1.463-1.992-3.83-1.967c-3.011,0.021-6.717,0.698-9.307,6.065
	c-0.775,0.121-1.477,0.413-2.062,1.039l0.105,0.237c0.423-0.15,0.924-0.174,1.486-0.174c-0.363,0.879-1.081,2.792-1.8,4.753
	c-2.179,2.885-4.373,4.255-5.977,4.255c-0.878,0.024-1.229-0.456-1.238-1.299c-0.01-0.528,0.121-1.268,0.228-1.652
	c1.712-0.862,3.438-1.83,5-3.432c0.854-0.927,1.447-1.858,1.471-2.821c0.011-0.906-0.544-1.369-1.689-1.385
	C46.643,14.244,44.678,15.363,43.396,16.723 M47.523,15.438c0.371,0,0.523,0.255,0.523,0.58c-0.016,1.537-1.899,3.504-4.338,4.938
	C44.324,18.576,46.031,15.417,47.523,15.438"/>
<path fill="#FFFFFF" d="M81.921,12.695c0.684-0.009,1.372-0.649,1.521-1.402c0.171-0.777-0.278-1.378-0.973-1.357
	c-0.678,0.001-1.363,0.625-1.526,1.403C80.797,12.099,81.223,12.711,81.921,12.695"/>
<path fill="#FFFFFF" d="M57.222,34.659c-24.969,0-50.343,0.304-50.343,0.677c0,0.36,25.374,0.68,50.343,0.68
	c24.976,0,50.346-0.319,50.346-0.68C107.568,34.962,82.198,34.659,57.222,34.659"/>
<path fill="#FFFFFF" d="M16.89,16.863l0.161-0.136c-0.227-0.371-0.312-1.025-0.296-1.416c0.081-3.254,3.517-5.098,8.883-5.098h2.968
	c-1.726,1.008-3.17,2.338-4.282,4.851c-0.477,1.081-2.751,6.893-3.679,9.507c-1.153,3.107-1.89,4.518-2.805,5.037l0.156,0.277
	c2.571,0.159,4.104-1.155,5.094-3.584c0.941-2.294,2.189-5.948,2.796-7.573c1.979-5.229,2.843-7.427,4.421-8.515
	c2.194-0.012,4.313-0.012,4.313-0.012c2.363-0.063,3.368-0.65,4.108-1.563l-0.17-0.211c-0.589,0.319-1.871,0.384-2.956,0.386h-10.66
	c-5.998,0-9.679,1.97-10.274,4.901C14.372,15.138,15.163,16.671,16.89,16.863"/>
<polygon fill="#FFFFFF" points="127.228,23.767 132.124,23.767 131.836,25.552 124.434,25.552 126.335,14.724 133.65,14.724 
	133.146,16.51 128.481,16.51 128.034,19.13 131.749,19.13 131.418,20.988 127.703,20.988 "/>
<path fill="#FFFFFF" d="M138.978,14.738c0.404,0,0.797,0.021,1.181,0.059c0.384,0.037,0.749,0.105,1.094,0.2
	c0.346,0.097,0.667,0.222,0.965,0.374c0.297,0.154,0.562,0.351,0.792,0.591c0.355,0.373,0.602,0.812,0.742,1.314
	c0.139,0.504,0.209,1.067,0.209,1.69c0,0.959-0.147,1.875-0.44,2.747c-0.293,0.871-0.741,1.614-1.346,2.229
	c-0.605,0.604-1.306,1.023-2.102,1.258c-0.797,0.235-1.748,0.353-2.852,0.353h-3.355l1.901-10.814H138.978z M136.66,23.767h0.821
	c0.672,0,1.24-0.096,1.706-0.289c0.465-0.192,0.871-0.544,1.217-1.053c0.288-0.414,0.525-0.918,0.713-1.516
	c0.187-0.596,0.28-1.23,0.28-1.903c0-0.818-0.172-1.43-0.518-1.833c-0.192-0.222-0.444-0.386-0.756-0.49
	c-0.312-0.106-0.713-0.159-1.202-0.159h-1.008L136.66,23.767z"/>
<path fill="#FFFFFF" d="M153.29,14.724h2.218l-1.281,7.257c-0.125,0.691-0.313,1.26-0.569,1.707
	c-0.254,0.445-0.549,0.809-0.885,1.087c-0.441,0.365-0.931,0.622-1.469,0.77c-0.538,0.149-1.119,0.224-1.742,0.224
	c-0.652,0-1.229-0.074-1.729-0.224c-0.498-0.147-0.935-0.382-1.31-0.697c-0.393-0.337-0.669-0.719-0.828-1.146
	c-0.158-0.427-0.237-0.929-0.237-1.504c0-0.25,0.014-0.512,0.043-0.785c0.029-0.273,0.077-0.593,0.144-0.958l1.022-5.73h2.419
	l-1.123,6.364c-0.048,0.308-0.079,0.542-0.093,0.705c-0.015,0.164-0.022,0.288-0.022,0.375c0,0.192,0.022,0.39,0.065,0.59
	c0.043,0.202,0.131,0.384,0.266,0.548c0.298,0.384,0.792,0.575,1.484,0.575c0.431,0,0.783-0.064,1.058-0.193
	c0.272-0.13,0.491-0.286,0.655-0.47c0.173-0.19,0.318-0.438,0.439-0.74c0.119-0.303,0.227-0.712,0.323-1.231L153.29,14.724z"/>
<path fill="#FFFFFF" d="M164.71,16.797c-0.336-0.096-0.691-0.182-1.066-0.259c-0.373-0.077-0.763-0.115-1.166-0.115
	c-0.24,0-0.475,0.02-0.705,0.057c-0.23,0.039-0.457,0.108-0.676,0.209c-0.223,0.102-0.434,0.24-0.635,0.419
	c-0.202,0.178-0.389,0.404-0.563,0.683c-0.143,0.23-0.275,0.488-0.395,0.771c-0.121,0.283-0.225,0.578-0.311,0.886
	s-0.15,0.622-0.194,0.943c-0.043,0.322-0.063,0.641-0.063,0.957c0,0.327,0.03,0.648,0.092,0.965c0.063,0.317,0.186,0.591,0.369,0.82
	c0.211,0.279,0.481,0.468,0.813,0.569c0.331,0.101,0.732,0.15,1.202,0.15c0.336,0,0.698-0.018,1.088-0.057
	c0.388-0.038,0.75-0.091,1.087-0.159l-0.059,1.8c-0.344,0.106-0.758,0.188-1.237,0.246s-0.951,0.085-1.411,0.085
	c-1.488,0-2.611-0.345-3.37-1.036c-0.758-0.69-1.138-1.775-1.138-3.254c0-0.45,0.039-0.922,0.115-1.411
	c0.078-0.489,0.191-0.972,0.346-1.446c0.154-0.477,0.352-0.933,0.591-1.369c0.24-0.437,0.522-0.827,0.849-1.173
	c0.558-0.595,1.176-1.006,1.858-1.231c0.681-0.225,1.397-0.339,2.146-0.339c0.576,0,1.113,0.051,1.613,0.152
	c0.498,0.101,0.979,0.228,1.439,0.381L164.71,16.797z"/>
<path fill="#FFFFFF" d="M172.168,22.831h-3.513l-1.311,2.722h-2.477l5.529-10.829h2.721l2.016,10.829h-2.533L172.168,22.831z
	 M169.533,21.045h2.347l-0.533-3.773h-0.029L169.533,21.045z"/>
<path fill="#FFFFFF" d="M184.97,16.797c-0.336-0.096-0.692-0.182-1.066-0.259c-0.373-0.077-0.763-0.115-1.166-0.115
	c-0.24,0-0.475,0.02-0.705,0.057c-0.23,0.039-0.457,0.108-0.677,0.209c-0.222,0.102-0.433,0.24-0.634,0.419
	c-0.202,0.178-0.389,0.404-0.563,0.683c-0.143,0.23-0.275,0.488-0.395,0.771c-0.121,0.283-0.225,0.578-0.311,0.886
	s-0.15,0.622-0.195,0.943c-0.043,0.322-0.063,0.641-0.063,0.957c0,0.327,0.031,0.648,0.093,0.965
	c0.063,0.317,0.186,0.591,0.369,0.82c0.211,0.279,0.481,0.468,0.813,0.569c0.33,0.101,0.732,0.15,1.201,0.15
	c0.336,0,0.699-0.018,1.088-0.057c0.389-0.038,0.75-0.091,1.088-0.159l-0.059,1.8c-0.345,0.106-0.758,0.188-1.238,0.246
	c-0.479,0.058-0.95,0.085-1.41,0.085c-1.489,0-2.612-0.345-3.37-1.036c-0.758-0.69-1.138-1.775-1.138-3.254
	c0-0.45,0.039-0.922,0.115-1.411c0.078-0.489,0.191-0.972,0.346-1.446c0.154-0.477,0.351-0.933,0.591-1.369
	c0.239-0.437,0.522-0.827,0.849-1.173c0.557-0.595,1.176-1.006,1.858-1.231c0.681-0.225,1.397-0.339,2.146-0.339
	c0.575,0,1.113,0.051,1.612,0.152c0.499,0.101,0.979,0.228,1.44,0.381L184.97,16.797z"/>
<polygon fill="#FFFFFF" points="187.892,14.724 190.368,14.724 188.468,25.551 186.006,25.551 "/>
<path fill="#FFFFFF" d="M195.616,25.768c-0.625,0-1.197-0.081-1.717-0.245c-0.519-0.162-0.963-0.417-1.334-0.763
	c-0.369-0.346-0.658-0.788-0.865-1.324c-0.206-0.538-0.309-1.186-0.309-1.944c0-0.758,0.1-1.528,0.303-2.312
	c0.201-0.782,0.484-1.48,0.851-2.095c0.479-0.815,1.103-1.45,1.867-1.9c0.764-0.451,1.709-0.678,2.833-0.678
	c0.635,0,1.214,0.079,1.738,0.238c0.523,0.158,0.971,0.41,1.34,0.756c0.371,0.345,0.66,0.79,0.865,1.332
	c0.207,0.542,0.311,1.193,0.311,1.951c0,0.739-0.098,1.502-0.295,2.29c-0.197,0.787-0.479,1.497-0.844,2.13
	C199.37,24.914,197.788,25.768,195.616,25.768 M197.122,16.452c-0.557,0-1.021,0.142-1.396,0.426s-0.691,0.676-0.951,1.176
	c-0.258,0.5-0.461,1.061-0.604,1.681c-0.144,0.621-0.216,1.22-0.216,1.797c0,0.865,0.162,1.468,0.49,1.81
	c0.326,0.343,0.763,0.513,1.31,0.513c0.565,0,1.037-0.145,1.411-0.434c0.374-0.288,0.691-0.677,0.951-1.168
	c0.259-0.5,0.461-1.063,0.604-1.688c0.145-0.625,0.217-1.223,0.217-1.789c0-0.434-0.043-0.798-0.129-1.097
	c-0.088-0.298-0.209-0.539-0.369-0.722c-0.158-0.182-0.35-0.313-0.574-0.389C197.638,16.491,197.39,16.452,197.122,16.452
	 M195.683,12.622l3.6-2.217l0.936,1.713l-3.859,1.656L195.683,12.622z"/>
<polygon fill="#FFFFFF" points="204.321,14.724 206.106,14.724 210.024,21.809 211.276,14.724 213.45,14.724 211.536,25.551 
	209.592,25.551 205.776,18.814 204.595,25.551 202.421,25.551 "/>
<path fill="#FFFFFF" d="M222.666,14.738c0.403,0,0.797,0.021,1.181,0.059c0.385,0.037,0.75,0.105,1.094,0.2
	c0.347,0.097,0.668,0.222,0.965,0.374c0.298,0.154,0.563,0.351,0.793,0.591c0.354,0.373,0.602,0.812,0.742,1.314
	c0.139,0.504,0.209,1.067,0.209,1.69c0,0.959-0.147,1.875-0.44,2.747c-0.293,0.871-0.741,1.614-1.347,2.229
	c-0.604,0.604-1.305,1.023-2.102,1.258c-0.797,0.235-1.748,0.353-2.852,0.353h-3.355l1.901-10.814H222.666z M220.349,23.767h0.82
	c0.672,0,1.24-0.096,1.706-0.289c0.465-0.192,0.871-0.544,1.217-1.053c0.288-0.414,0.524-0.918,0.714-1.516
	c0.186-0.596,0.279-1.23,0.279-1.903c0-0.818-0.172-1.43-0.518-1.833c-0.192-0.222-0.444-0.386-0.756-0.49
	c-0.313-0.106-0.713-0.159-1.203-0.159h-1.008L220.349,23.767z"/>
<polygon fill="#FFFFFF" points="230.558,14.724 233.033,14.724 231.133,25.551 228.671,25.551 "/>
<path fill="#FFFFFF" d="M241.688,16.553c-0.451-0.087-0.907-0.131-1.368-0.131c-0.432,0-0.859,0.063-1.281,0.188
	c-0.423,0.125-0.802,0.375-1.138,0.749c-0.222,0.24-0.41,0.522-0.569,0.85c-0.158,0.326-0.289,0.669-0.396,1.029
	c-0.104,0.36-0.185,0.725-0.237,1.095c-0.053,0.369-0.078,0.713-0.078,1.029c0,0.403,0.043,0.761,0.129,1.073
	c0.086,0.312,0.225,0.578,0.418,0.799c0.363,0.413,0.969,0.619,1.813,0.619c0.114,0,0.293-0.005,0.532-0.015
	c0.24-0.01,0.447-0.023,0.619-0.043l0.404-2.317h-1.513l0.317-1.786h3.974l-0.979,5.529c-0.518,0.163-1.086,0.295-1.705,0.396
	c-0.619,0.102-1.26,0.151-1.924,0.151c-0.834,0-1.533-0.086-2.095-0.259c-0.562-0.174-1.024-0.428-1.39-0.764
	c-0.393-0.365-0.686-0.823-0.877-1.376c-0.193-0.551-0.289-1.187-0.289-1.907c0-0.565,0.06-1.142,0.18-1.728
	c0.12-0.585,0.291-1.147,0.512-1.684c0.221-0.538,0.494-1.032,0.82-1.484c0.327-0.451,0.695-0.82,1.109-1.108
	c0.518-0.364,1.074-0.614,1.67-0.749c0.595-0.135,1.195-0.201,1.8-0.201c0.597,0,1.19,0.05,1.786,0.15
	c0.595,0.102,1.156,0.229,1.686,0.382l-0.648,1.801C242.565,16.735,242.138,16.639,241.688,16.553"/>
<polygon fill="#FFFFFF" points="246.757,14.724 249.232,14.724 247.332,25.551 244.87,25.551 "/>
<polygon fill="#FFFFFF" points="250.687,16.509 251.004,14.723 260.306,14.723 259.787,16.509 256.519,16.509 254.935,25.551 
	252.458,25.551 254.042,16.509 "/>
<path fill="#FFFFFF" d="M265.604,22.831h-3.514l-1.31,2.722h-2.478l5.531-10.829h2.721l2.016,10.829h-2.534L265.604,22.831z
	 M262.97,21.045h2.348l-0.533-3.773h-0.029L262.97,21.045z"/>
<polygon fill="#FFFFFF" points="270.126,25.552 272.027,14.724 274.489,14.724 272.892,23.767 277.7,23.767 277.397,25.552 "/>
</svg>
